<svg viewBox="0 0 40 40" fill="none" xmlns="http://www.w3.org/2000/svg">
  <defs>
    <linearGradient id="petalGradient" x1="0%" y1="0%" x2="100%" y2="100%">
      <stop offset="0%" stop-color="#6A0DAD"/>
      <stop offset="100%" stop-color="#9D4EDD"/>
    </linearGradient>
  </defs>
  <g transform="translate(20, 20)">
    <path d="M0,-14 Q5,-10 3,-3 Q1,-1 0,0 Q-1,-1 -3,-3 Q-5,-10 0,-14"
          fill="url(#petalGradient)" opacity="0.9"/>
    <path d="M0,-14 Q5,-10 3,-3 Q1,-1 0,0 Q-1,-1 -3,-3 Q-5,-10 0,-14"
          fill="url(#petalGradient)" opacity="0.85" transform="rotate(72)"/>
    <path d="M0,-14 Q5,-10 3,-3 Q1,-1 0,0 Q-1,-1 -3,-3 Q-5,-10 0,-14"
          fill="url(#petalGradient)" opacity="0.8" transform="rotate(144)"/>
    <path d="M0,-14 Q5,-10 3,-3 Q1,-1 0,0 Q-1,-1 -3,-3 Q-5,-10 0,-14"
          fill="url(#petalGradient)" opacity="0.85" transform="rotate(216)"/>
    <path d="M0,-14 Q5,-10 3,-3 Q1,-1 0,0 Q-1,-1 -3,-3 Q-5,-10 0,-14"
          fill="url(#petalGradient)" opacity="0.9" transform="rotate(288)"/>
    <circle cx="0" cy="0" r="2" fill="#E9D5FF"/>
  </g>
</svg>
